# xmcd
#
# Track frame offsets: 
#        150
#        30595
#        50032
#        63852
#        83845
#        107722
#        137367
#        163552
#        179192
#        188102
#        198075
#        208235
#        219095
#        228107
#        237892
#        250440
#        261065
#        274072
#
# Disc length: 3813 seconds
#
# Revision: 6
# Processed by: cddbd v1.5.1PL0 Copyright (c) Steve Scherf et al.
# Submitted via: ExactAudioCopy v0.95a3
#
DISCID=fb0ee312
DTITLE=Various Artist - Best Of New Age - Crystal Water
DYEAR=1999
DGENRE=New Age
TTITLE0=Rebecca
TTITLE1=Contemplation
TTITLE2=A Whisper
TTITLE3=Shoreline
TTITLE4=Fiona
TTITLE5=Sands Of Time
TTITLE6=Tranquility
TTITLE7=Traveller
TTITLE8=Crystal Waters
TTITLE9=Journey
TTITLE10=Explorer
TTITLE11=Valley Stream
TTITLE12=Paradise
TTITLE13=Gentle Winds
TTITLE14=Mountain Brook
TTITLE15=Scenica
TTITLE16=Panorama
TTITLE17=Passages
EXTD=YEAR: 1999
EXTT0=
EXTT1=
EXTT2=
EXTT3=
EXTT4=
EXTT5=
EXTT6=
EXTT7=
EXTT8=
EXTT9=
EXTT10=
EXTT11=
EXTT12=
EXTT13=
EXTT14=
EXTT15=
EXTT16=
EXTT17=
PLAYORDER=
